# xmcd
#
# Track frame offsets: 
#        150
#        11556
#        20815
#        32387
#        40631
#        51341
#        62819
#        74097
#        83772
#        94552
#        105525
#        117670
#        129534
#        138376
#        150167
#        159175
#        169023
#        178663
#        190023
#        199291
#        209464
#        219006
#        231203
#        240681
#
# Disc length: 3378 seconds
#
# Revision: 2
# Processed by: cddbd v1.5.2PL0 Copyright (c) Steve Scherf et al.
# Submitted via: ExactAudioCopyFreeDBPlugin 1.0
#
DISCID=430d3018
DTITLE=Jim Reeves - Jim Reeves - Eight Classic Albums - Disc 2
DYEAR=2012
DGENRE=Country
TTITLE0=Teardrops In My Heart
TTITLE1=I Get The Blues When It Rains
TTITLE2=You Belong To Me
TTITLE3=Everywhere You Go
TTITLE4=Need Me
TTITLE5=I Care No More
TTITLE6=My Happiness
TTITLE7=Yours (Quiereme Mucho)
TTITLE8=That's My Desire
TTITLE9=Blues In My Heart
TTITLE10=I Don't See Me In Your Eyes Anymore
TTITLE11=Final Affair
TTITLE12=Marie
TTITLE13=Mona Lisa
TTITLE14=My Juanita
TTITLE15=Charmaine
TTITLE16=Margie
TTITLE17=Anna Marie
TTITLE18=Sweet Sue Just You
TTITLE19=Linda
TTITLE20=Ramona
TTITLE21=Maria Elena
TTITLE22=My Mary
TTITLE23=Goodnight Irene
EXTD=
EXTT0=
EXTT1=
EXTT2=
EXTT3=
EXTT4=
EXTT5=
EXTT6=
EXTT7=
EXTT8=
EXTT9=
EXTT10=
EXTT11=
EXTT12=
EXTT13=
EXTT14=
EXTT15=
EXTT16=
EXTT17=
EXTT18=
EXTT19=
EXTT20=
EXTT21=
EXTT22=
EXTT23=
PLAYORDER=
